<?xml version="1.0" standalone="no"?>
<!DOCTYPE svg PUBLIC "-//W3C//DTD SVG 20010904//EN"
 "http://www.w3.org/TR/2001/REC-SVG-20010904/DTD/svg10.dtd">
<svg version="1.0" xmlns="http://www.w3.org/2000/svg"
 width="3400.000000pt" height="1599.000000pt" viewBox="0 0 3400.000000 1599.000000"
 preserveAspectRatio="xMidYMid meet">
<metadata>
Created by potrace 1.16, written by Peter Selinger 2001-2019
</metadata>
<g transform="translate(0.000000,1599.000000) scale(0.100000,-0.100000)"
fill="#000000" stroke="none">
<path d="M0 7995 l0 -7995 17000 0 17000 0 0 7995 0 7995 -17000 0 -17000 0 0
-7995z m29398 4504 c1417 -821 2583 -1499 2590 -1507 9 -13 12 -629 12 -3007
0 -2837 -1 -2993 -17 -3007 -10 -8 -38 -26 -63 -40 -25 -13 -585 -336 -1245
-718 -660 -381 -1560 -901 -2000 -1155 -440 -254 -1035 -598 -1322 -763 -287
-166 -530 -302 -541 -302 -10 0 -155 79 -323 176 -167 97 -477 277 -689 399
-212 122 -749 433 -1195 690 -1234 713 -2390 1380 -2690 1553 -148 86 -278
162 -287 170 -17 14 -18 170 -18 3006 0 1645 4 2996 8 3001 4 6 162 100 352
210 348 200 449 259 1910 1103 443 256 1199 692 1680 970 481 278 954 552
1050 608 96 57 183 103 193 103 10 1 1177 -670 2595 -1490z m-20748 -2520
c270 -33 497 -114 699 -249 91 -61 243 -197 282 -252 l21 -29 -23 -26 c-13
-14 -45 -43 -71 -65 l-48 -40 -27 34 c-105 131 -302 280 -462 349 -95 41 -231
80 -351 101 -116 20 -416 17 -520 -6 -240 -52 -405 -140 -550 -293 -133 -141
-200 -307 -200 -496 0 -175 53 -300 175 -422 163 -162 333 -235 994 -430 481
-142 714 -253 896 -426 136 -129 218 -279 257 -469 27 -127 21 -355 -12 -475
-141 -524 -627 -805 -1349 -782 -404 13 -740 128 -1026 352 -80 62 -255 236
-255 253 0 5 32 37 70 72 l70 62 98 -99 c339 -344 772 -505 1253 -465 335 28
562 117 733 287 110 109 169 213 213 376 25 91 24 329 -1 419 -67 244 -249
425 -558 555 -151 64 -233 91 -588 195 -168 49 -345 103 -395 121 -435 153
-654 337 -745 624 -28 89 -39 299 -20 413 49 304 270 566 596 707 101 44 235
82 349 99 109 17 379 20 495 5z m5199 -13 c474 -89 850 -326 1124 -707 138
-193 266 -491 321 -750 40 -187 50 -292 50 -514 0 -116 -6 -252 -13 -305 -104
-764 -526 -1340 -1153 -1574 -330 -123 -725 -150 -1078 -74 -529 113 -957 453
-1200 952 -292 600 -296 1384 -9 1986 274 574 764 923 1409 1004 82 10 467 -2
549 -18z m-11080 -1379 c304 -738 642 -1557 750 -1819 108 -263 198 -478 201
-478 3 0 343 819 755 1820 l750 1820 107 0 c107 0 108 0 99 -22 -5 -13 -321
-770 -701 -1683 -381 -913 -738 -1770 -795 -1905 l-102 -245 -113 0 -113 0
-798 1915 c-439 1053 -801 1921 -804 1928 -3 9 21 12 103 12 l107 0 554 -1343z
m3491 -587 l0 -1930 -95 0 -95 0 0 1930 0 1930 95 0 95 0 0 -1930z m4530 0 l0
-1930 -90 0 -90 0 0 1930 0 1930 90 0 90 0 0 -1930z m6935 165 l1300 -1759 3
1762 2 1762 90 0 90 0 0 -1930 0 -1930 -93 0 -92 0 -606 828 c-333 455 -918
1254 -1300 1776 l-694 949 -3 -1777 -2 -1776 -90 0 -90 0 0 1930 0 1931 92 -3
92 -3 1301 -1760z"/>
<path d="M26584 13497 c-227 -360 -621 -985 -2547 -4037 -602 -954 -1094
-1736 -1093 -1737 1 -1 44 9 96 23 52 13 1679 421 3615 905 1936 485 3525 884
3532 888 7 4 -114 164 -316 421 -180 228 -938 1191 -1685 2140 -747 949 -1364
1730 -1370 1737 -8 8 -67 -77 -232 -340z"/>
<path d="M26145 13497 c-2735 -1581 -4411 -2550 -4414 -2553 -3 -3 1095 -3148
1108 -3172 5 -8 32 27 78 100 38 62 232 370 430 683 659 1045 2163 3429 2718
4310 302 479 555 880 563 893 8 12 13 22 11 22 -2 0 -224 -127 -494 -283z"/>
<path d="M27045 13715 c16 -22 590 -751 1274 -1620 685 -869 1408 -1788 1609
-2042 200 -255 368 -463 373 -463 6 0 1458 1262 1547 1345 11 10 -17 30 -150
107 -90 53 -1052 610 -2138 1238 -2347 1358 -2465 1426 -2510 1453 l-35 21 30
-39z"/>
<path d="M31125 10174 c-418 -366 -764 -669 -768 -673 -8 -8 1516 -4145 1534
-4166 5 -5 9 1229 9 2748 0 1516 -3 2757 -7 2756 -5 0 -350 -299 -768 -665z"/>
<path d="M21711 7965 c0 -2611 0 -2689 18 -2655 10 19 249 551 531 1182 l512
1148 -518 1472 c-284 810 -523 1489 -530 1508 -10 29 -13 -445 -13 -2655z"/>
<path d="M29995 9379 c-104 -27 -1529 -385 -3165 -796 -1636 -410 -3172 -795
-3413 -856 -241 -60 -436 -111 -434 -113 8 -8 5570 -2944 5577 -2944 5 0 26
53 48 118 22 64 387 1127 812 2362 425 1235 775 2253 778 2263 2 9 0 17 -4 16
-5 0 -94 -23 -199 -50z"/>
<path d="M30285 9329 c-2 -8 -243 -707 -534 -1554 -291 -847 -651 -1895 -801
-2329 -149 -434 -269 -790 -267 -792 2 -2 485 59 1073 136 588 77 1301 170
1584 206 283 37 519 70 523 74 5 4 -32 117 -81 251 -1167 3158 -1484 4014
-1487 4018 -3 2 -7 -2 -10 -10z"/>
<path d="M22678 7173 c-85 -192 -334 -747 -553 -1236 -219 -488 -396 -890
-393 -892 2 -3 422 -246 934 -541 1108 -640 2225 -1285 2939 -1697 955 -551
1018 -587 1008 -575 -6 7 -200 281 -433 608 -233 327 -818 1149 -1300 1825
-482 677 -1136 1595 -1454 2040 -317 446 -580 811 -584 813 -4 1 -78 -154
-164 -345z"/>
<path d="M23010 7473 c0 -2 339 -480 753 -1061 414 -581 1263 -1772 1886
-2647 623 -875 1138 -1595 1145 -1602 8 -10 75 78 292 385 155 218 538 760
853 1204 314 444 571 811 571 815 0 7 -1096 587 -4515 2391 -473 250 -888 469
-922 487 -35 18 -63 31 -63 28z"/>
<path d="M31620 4929 c-30 -5 -212 -29 -405 -53 -427 -55 -2042 -265 -2360
-307 -126 -16 -233 -33 -236 -37 -4 -4 -106 -146 -226 -317 -121 -170 -431
-609 -690 -975 -715 -1011 -715 -1012 -711 -1015 2 -2 449 254 993 569 545
314 1598 922 2340 1350 743 429 1354 783 1360 788 10 9 13 9 -65 -3z"/>
<path d="M13310 9809 c-258 -29 -496 -115 -709 -256 -124 -82 -309 -270 -400
-407 -155 -234 -248 -486 -298 -806 -22 -144 -25 -520 -4 -655 96 -651 405
-1118 896 -1355 530 -256 1215 -197 1671 143 549 410 797 1209 628 2019 -112
535 -430 964 -868 1172 -268 127 -603 180 -916 145z"/>
</g>
</svg>
